<?xml version="1.0" standalone="no"?>
<!DOCTYPE svg PUBLIC "-//W3C//DTD SVG 20010904//EN"
 "http://www.w3.org/TR/2001/REC-SVG-20010904/DTD/svg10.dtd">
<svg version="1.0" xmlns="http://www.w3.org/2000/svg"
 width="800.000000pt" height="800.000000pt" viewBox="0 0 800.000000 800.000000"
 preserveAspectRatio="xMidYMid meet">
<metadata>
Created by potrace 1.11, written by Peter Selinger 2001-2013
</metadata>
<g transform="translate(0.000000,800.000000) scale(0.100000,-0.100000)"
fill="#000000" stroke="none">
<path d="M964 7403 c4 -43 13 -102 20 -133 13 -57 13 -89 1 -152 -6 -31 -4
-39 9 -44 31 -12 40 10 28 68 -21 97 -33 229 -23 246 5 8 23 -11 52 -55 70
-105 72 -108 139 -278 34 -88 75 -185 91 -215 55 -109 160 -184 280 -199 4 -1
10 -12 13 -25 3 -13 40 -54 83 -92 42 -38 99 -89 126 -114 l48 -46 -126 -128
c-170 -173 -321 -364 -440 -556 -33 -52 -61 -97 -63 -100 -3 -5 -35 28 -223
228 -33 35 -57 67 -54 72 6 10 -9 81 -25 115 -5 11 -16 43 -24 70 -9 28 -13
38 -11 23 3 -16 4 -28 2 -28 -2 0 -22 17 -45 38 -22 21 -60 48 -84 59 -24 12
-63 43 -88 68 -25 26 -54 51 -65 57 -11 6 1 -9 28 -34 42 -41 66 -75 35 -51
-13 10 -79 31 -143 47 -95 22 -144 39 -170 58 -18 13 -25 15 -17 5 17 -20
-151 34 -241 78 -31 16 -60 26 -63 23 -7 -7 -7 -111 0 -135 2 -10 8 -45 11
-78 4 -33 8 -62 10 -64 2 -2 -2 -19 -10 -38 -19 -44 -19 -67 -1 -82 22 -18 39
11 32 56 -19 114 -23 250 -7 266 17 17 140 -109 208 -213 188 -286 233 -350
248 -350 4 0 19 -8 33 -19 39 -27 120 -53 168 -53 35 0 49 -6 88 -44 26 -24
51 -44 56 -44 9 0 122 -68 217 -131 29 -19 53 -39 53 -46 0 -6 -9 -28 -20 -50
-56 -110 -167 -394 -185 -474 -2 -9 -17 -67 -34 -130 -43 -159 -76 -366 -88
-544 -12 -175 -6 -507 11 -605 3 -14 7 -45 10 -70 3 -25 9 -59 12 -75 5 -30 0
-34 -352 -290 -196 -142 -365 -268 -375 -278 -22 -24 -33 -68 -24 -104 4 -21
219 -330 283 -408 9 -11 140 -192 186 -258 17 -23 60 -82 96 -132 37 -49 144
-198 240 -330 95 -132 190 -262 210 -290 20 -27 74 -102 120 -165 46 -63 100
-137 120 -165 20 -27 110 -151 199 -274 182 -251 178 -245 211 -256 51 -16 91
-7 149 37 31 23 75 56 98 72 24 17 62 45 85 62 24 17 159 116 301 219 l259
187 98 -41 c259 -107 540 -185 790 -217 25 -3 56 -7 70 -10 131 -22 614 -22
740 0 14 3 48 7 75 11 392 49 862 219 1220 440 109 67 131 82 234 159 l53 40
80 -84 c150 -160 363 -374 421 -422 64 -53 96 -64 76 -25 -12 22 -78 118 -89
127 -3 3 -30 37 -60 75 -30 39 -63 79 -73 90 -46 49 -33 52 30 7 96 -70 291
-196 335 -216 66 -31 67 -12 3 50 -33 33 -172 154 -310 269 -137 115 -256 215
-263 222 -12 11 8 35 115 141 227 223 415 466 550 710 59 107 72 134 117 232
26 58 52 114 57 125 60 132 170 513 185 643 3 25 7 49 9 52 2 3 7 33 10 65 4
33 9 69 11 80 22 114 22 701 0 723 -3 2 97 79 222 169 275 200 350 254 425
310 31 24 62 43 67 43 6 0 10 3 10 8 1 4 30 27 65 52 72 50 99 93 92 144 -4
32 -20 58 -110 180 -21 28 -45 62 -55 76 -9 14 -161 224 -337 465 -175 242
-500 690 -722 995 -352 485 -408 557 -443 573 -34 15 -44 16 -78 4 -22 -8 -46
-19 -53 -26 -14 -11 -304 -222 -346 -251 -12 -8 -101 -73 -199 -145 -98 -71
-184 -134 -191 -138 -9 -6 -47 7 -106 36 -103 50 -232 105 -334 141 -71 26
-261 83 -297 90 -12 2 -64 13 -116 24 -103 22 -141 29 -210 38 -25 3 -56 7
-70 10 -134 24 -569 23 -755 -2 -93 -12 -235 -36 -295 -50 -123 -28 -339 -90
-395 -114 -11 -4 -47 -18 -80 -31 -243 -92 -514 -242 -736 -408 l-116 -87 -23
35 c-13 20 -51 81 -84 136 -33 55 -66 106 -73 114 -9 8 -12 29 -10 54 9 95
-29 194 -101 264 -49 47 -148 111 -252 162 -104 52 -100 50 -180 93 -114 62
-144 80 -199 119 -30 22 -59 39 -64 39 -6 0 -7 -29 -3 -77z m425 -370 c12 -18
20 -33 18 -33 -5 0 -87 109 -87 116 0 7 39 -40 69 -83z m-869 -988 c26 -31 -1
-13 -47 32 -46 45 -47 45 -7 15 22 -17 47 -38 54 -47z"/>
</g>
</svg>
